<?xml version="1.0" encoding="UTF-8"?>
<svg id="_ƒŒƒCƒ__1" data-name="ƒŒƒCƒ„[_1" xmlns="http://www.w3.org/2000/svg" viewBox="0 0 5000 3422">
  <defs>
    <style>
      .cls-1, .cls-2 {
        fill: #fff;
      }

      .cls-3 {
        fill: #00ff40;
      }

      .cls-2 {
        stroke-width: 4px;
      }

      .cls-2, .cls-4 {
        stroke: #000;
        stroke-miterlimit: 10;
      }

      .cls-5 {
        fill: #b2b2b2;
      }

      .cls-6 {
        fill: #00b727;
      }

      .cls-4 {
        fill: none;
        stroke-width: 85px;
      }
    </style>
  </defs>
  <path class="cls-1" d="M3062.19,2200.6c26.49-14.97,71.58,15.43,71.58,15.43,0,0-37.46-45.63,6.06-35.51,41.12,9.56,180.49,90.09,180.49,90.09,0,0-244.23-237.77-206.63-249.97,23.11-7.52,71.6,22.74,71.6,22.74,0,0-37.37-68.48-55.64-137.67,28.83-76.61,44.6-159.43,44.6-245.89,0-391.53-322.96-708.92-721.35-708.92-124.22,0-241.1,30.86-343.14,85.2-112.85.84-311.36-60.57-311.36-60.57,0,0,135.81,104.4,109.32,119.37-26.48,14.98-71.57-15.43-71.57-15.43,0,0,37.47,45.63-6.07,35.51-41.12-9.56-180.5-90.09-180.5-90.09,0,0,184.37,179.5,207.99,234.55-3.82,5.48-7.58,11-11.25,16.59-24.76-.87-61.7-23.91-61.7-23.91,0,0,16.64,30.52,33.14,71.36-54.99,100.08-86.22,214.62-86.22,336.34,0,391.53,322.95,708.92,721.35,708.92,140.6,0,271.78-39.57,382.71-107.95,105.42-12.11,335.9,59.19,335.9,59.19,0,0-135.81-104.41-109.33-119.37ZM2928.54,2192.75c-17.5-3.99-35.74-7.85-54.06-11.32-26.13,20.42-53.82,39.01-82.89,55.51-99.65,56.61-215.31,89.01-338.69,89.01-374.35,0-677.82-298.25-677.82-666.14,0-99.9,22.42-194.64,62.51-279.68,15.35-32.57,33.26-63.73,53.55-93.19h0c16.13-25.29,11.42-42.02,2.03-56.3-2.56-2.83-5.15-5.66-7.76-8.51-57.81-63.01-122.92-126.41-122.92-126.41,0,0,109.22,57.75,150.34,67.31,43.52,10.11,6.06-35.51,6.06-35.51,0,0,18.21,12.24,38.28,17.35,11.52,2.93,23.65,3.53,33.31-1.93,7.29-4.12,4.53-13.32-3.26-24.47-20.49-29.3-75.9-72.12-75.9-72.12,0,0,56.57,17.49,126.44,33.69,7.42,1.72,14.95,3.42,22.62,5.09,31.34,3.74,44.19,2.37,62.89-7.51.16-.09.27-.1.42-.18,19.33-10.58,39.24-20.25,59.67-28.97,82.62-35.23,173.76-54.8,269.56-54.8,374.35,0,677.82,298.24,677.82,666.14,0,58.49-7.7,115.2-22.11,169.25-.7,2.64-1.43,5.27-2.18,7.9h.05c-.08.21-.14.42-.22.63-3.13,11.14-6.54,22.17-10.24,33.08-11.67,47.74-5.34,80.8,4.22,102.16,10.06,22.47,23.69,32,23.69,32,0,0-14.76-9.19-31.87-16.19-13.91-5.69-29.37-9.92-39.73-6.55-11.1,3.6-1.84,22.25,16.63,46.66,44.08,58.29,140.96,149.74,140.96,149.74,0,0-139.38-80.54-180.5-90.1-.59-.14-1.11-.22-1.67-.34-23.45-4.89-21.42,7.67-15.41,19.27,4.44,8.57,11.02,16.59,11.02,16.59,0,0-6.99-4.68-17.02-9.46-14.44-6.88-35.19-13.87-50.98-7.55-2.29,2.47-4.61,4.91-6.93,7.35-.21,8.03,10.07,21.65,24.56,36.76,33.17,34.6,88.11,76.85,88.11,76.85,0,0-59.89-18.53-132.57-35.11Z"/>
  <path class="cls-3" d="M2445.37,1032.18c-104.47,0-202.87,25.38-289.37,70.01-4.26,2.19-8.5,4.4-12.69,6.68-80.12,43.69-149.34,104.22-202.87,176.72-10.65,14.43-20.74,29.28-30.1,44.62-1.66,2.72-3.21,5.52-4.84,8.26-22.94,38.94-41.8,80.5-55.65,124.25-18.23,57.59-28.05,118.82-28.05,182.31,0,338.46,279.18,612.84,623.58,612.84,119.32,0,230.77-32.97,325.53-90.09,125.19-75.46,221.09-193.15,267.39-332.87,19.82-59.8,30.67-123.58,30.67-189.88,0-338.47-279.19-612.85-623.59-612.85ZM2723.07,2085.91c-75.97,46.66-165.68,73.71-261.87,73.71-191.55,0-357.56-107-439.85-263.45,89.3,127.05,238.42,210.34,407.43,210.34,273.35,0,494.96-217.78,494.96-486.41,0-80.4-19.97-156.15-55.1-222.97,55.13,78.45,87.5,173.53,87.5,276.08,0,55.47-9.58,108.72-26.97,158.39-37.22,106.22-110.75,195.76-206.1,254.31Z"/>
  <path class="cls-3" d="M2868.64,1397.14c35.13,66.82,55.1,142.57,55.1,222.97,0,268.63-221.6,486.41-494.96,486.41-169.01,0-318.13-83.3-407.43-210.34,82.29,156.45,248.3,263.45,439.85,263.45,96.19,0,185.9-27.05,261.87-73.71,95.34-58.55,168.87-148.1,206.1-254.31,17.4-49.67,26.97-102.91,26.97-158.39,0-102.55-32.37-197.63-87.5-276.08Z"/>
  <path class="cls-6" d="M2219,1073.86c-157,189.62-162.87,384.57-162.87,464.97,0,268.63,221.6,486.41,494.96,486.41,169.01,0,448.61-105.15,537.92-232.2-82.29,156.45-291,474.54-470,483.38-96.07,4.75-441.15-10.87-512.2-64.49-83.8-63.24-178.58-144.68-215.8-250.89-17.4-49.67-77.47-172.73-83-227.94-36-359.59,256.89-666.12,411-659.25Z"/>
  <path class="cls-4" d="M1808,1675.14c314.01,91.74,852.4,189.9,1259-75.65,22.24-14.52,15.26-19.41,37-36.35"/>
  <ellipse cx="2568.5" cy="1767.49" rx="195.15" ry="199.72"/>
  <ellipse class="cls-1" cx="2573.12" cy="1767.49" rx="118.8" ry="121.58"/>
  <ellipse class="cls-5" cx="2578.59" cy="1770.64" rx="76.03" ry="77.81"/>
  <ellipse class="cls-2" cx="2584.53" cy="1773.04" rx="69.3" ry="70.92"/>
  <g>
    <path d="M3195.34,2298.53c32.09-14.59,92.67,25.21,92.67,25.21,0,0-52.51-56.62,3.93-40.44,53.31,15.29,207.56,130.56,207.56,130.56,0,0-304.37-307.89-257.86-318.13,28.6-6.3,93.46,33.68,93.46,33.68,0,0-117.61-178.08-104.5-269.81l-.02.02c13.45-57.07,20.55-116.52,20.55-177.62,0-433.25-357.38-784.48-798.24-784.48-116.02,0-226.23,24.36-325.7,68.1-3.38.93-7.06,2.15-11.44,3.95-100.22,41.35-449.74-60.83-449.74-60.83,0,0,169.73,95.78,137.63,110.35-32.07,14.58-92.66-25.21-92.66-25.21,0,0,52.51,56.62-3.93,40.44-53.31-15.29-207.56-130.56-207.56-130.56,0,0,304.38,307.89,257.86,318.13-28.59,6.3-93.47-33.68-93.47-33.68,0,0,44.66,67.66,75.88,141.06-54.41,106.04-85.11,225.86-85.11,352.73,0,433.26,357.39,784.49,798.24,784.49,151.26,0,292.7-41.36,413.24-113.18,4.52-.73,10.08-2.36,17.09-5.25,100.23-41.35,449.74,60.83,449.74,60.83,0,0-169.73-95.78-137.64-110.35ZM2835.61,2260.79c-110.92,68.38-242.1,107.95-382.71,107.95-398.4,0-721.35-317.39-721.35-708.92,0-121.72,31.23-236.26,86.22-336.34-16.5-40.84-33.14-71.36-33.14-71.36,0,0,36.94,23.04,61.7,23.91,3.67-5.59,7.43-11.11,11.25-16.59-23.63-55.05-207.99-234.55-207.99-234.55,0,0,139.38,80.53,180.5,90.09,43.53,10.11,6.07-35.51,6.07-35.51,0,0,45.09,30.4,71.57,15.43,26.49-14.96-109.32-119.37-109.32-119.37,0,0,198.51,61.41,311.36,60.57,102.04-54.34,218.92-85.2,343.14-85.2,398.39,0,721.35,317.39,721.35,708.92,0,86.45-15.77,169.28-44.6,245.89,18.26,69.19,55.64,137.67,55.64,137.67,0,0-48.49-30.25-71.6-22.74-37.61,12.2,206.63,249.97,206.63,249.97,0,0-139.38-80.54-180.49-90.09-43.52-10.11-6.06,35.51-6.06,35.51,0,0-45.09-30.4-71.58-15.43-26.49,14.97,109.33,119.37,109.33,119.37,0,0-230.48-71.3-335.9-59.19Z"/>
    <path d="M2973,2151.02c-14.49-15.11-24.77-28.73-24.56-36.76,2.32-2.44,4.64-4.88,6.93-7.35,15.79-6.31,36.54.67,50.98,7.55,10.03,4.78,17.02,9.46,17.02,9.46,0,0-6.58-8.02-11.02-16.59-6-11.59-8.04-24.15,15.41-19.27.56.12,1.08.21,1.67.34,41.12,9.56,180.5,90.1,180.5,90.1,0,0-96.88-91.45-140.96-149.74-18.47-24.42-27.73-43.06-16.63-46.66,10.36-3.37,25.82.86,39.73,6.55,17.1,6.99,31.87,16.19,31.87,16.19,0,0-13.62-9.53-23.69-32-9.56-21.36-15.89-54.42-4.22-102.16,3.7-10.9,7.11-21.93,10.24-33.08.08-.21.14-.41.22-.63h-.05c.74-2.63,1.47-5.26,2.18-7.9,14.41-54.05,22.11-110.76,22.11-169.25,0-367.9-303.47-666.14-677.82-666.14-95.8,0-186.94,19.57-269.56,54.8-20.43,8.72-40.34,18.39-59.67,28.97-.15.08-.26.09-.42.18-18.7,9.88-31.55,11.25-62.89,7.51-7.67-1.66-15.2-3.37-22.62-5.09-69.87-16.2-126.44-33.69-126.44-33.69,0,0,55.41,42.83,75.9,72.12,7.79,11.14,10.56,20.34,3.26,24.47-9.66,5.46-21.79,4.86-33.31,1.93-20.07-5.1-38.28-17.35-38.28-17.35,0,0,37.47,45.63-6.06,35.51-41.12-9.57-150.34-67.31-150.34-67.31,0,0,65.11,63.4,122.92,126.41,2.61,2.84,5.2,5.67,7.76,8.51,9.39,14.28,14.1,31.01-2.03,56.3h0c-20.29,29.46-38.2,60.63-53.55,93.19-40.09,85.05-62.51,179.79-62.51,279.68,0,367.89,303.47,666.14,677.82,666.14,123.38,0,239.04-32.41,338.69-89.01,29.06-16.51,56.76-35.09,82.89-55.51,18.32,3.47,36.56,7.33,54.06,11.32,72.68,16.58,132.57,35.11,132.57,35.11,0,0-54.94-42.25-88.11-76.85ZM2445.37,2257.86c-344.39,0-623.58-274.38-623.58-612.84,0-63.48,9.82-124.71,28.05-182.31,13.86-43.75,32.71-85.31,55.65-124.25,1.62-2.75,3.18-5.54,4.84-8.26,9.36-15.34,19.45-30.19,30.1-44.62,53.53-72.5,122.76-133.03,202.87-176.72,4.2-2.28,8.44-4.49,12.69-6.68,86.5-44.63,184.9-70.01,289.37-70.01,344.41,0,623.59,274.38,623.59,612.85,0,66.3-10.85,130.08-30.67,189.88-46.3,139.72-142.2,257.41-267.39,332.87-94.76,57.12-206.22,90.09-325.53,90.09Z"/>
  </g>
  <path class="cls-1" d="M2603.22,1385.06c14.45,56.58,68.95,91.89,121.71,78.88,52.76-13.01,83.82-69.42,69.36-126-14.45-56.58-68.95-91.89-121.71-78.88-52.76,13.01-83.82,69.42-69.36,126Z"/>
</svg>